<svg xmlns="http://www.w3.org/2000/svg" viewBox="0 0 800 1000" fill="none" role="img">
  <rect width="800" height="1000" fill="#FAFAFA"/>
  <g stroke="#D7D7DD" stroke-width="1.2" opacity="0.55" fill="none">
    <circle cx="400" cy="500" r="150"/>
    <circle cx="400" cy="500" r="250"/>
    <circle cx="400" cy="500" r="350"/>
    <circle cx="400" cy="500" r="450"/>
  </g>
  
  <g fill="#0A0A0A">
    <path d="M300 330 q100 -50 200 0 l80 54 -44 74 -50 -26 0 268 q0 26 -26 26 l-190 0 q-26 0 -26 -26 l0 -268 -50 26 -44 -74 z"/>
    <path d="M352 322 q48 34 96 0 l-10 34 q-38 22 -76 0 z" fill="#FAFAFA"/>
  </g>
  <circle cx="400" cy="520" r="26" fill="none" stroke="#0A0A0A" stroke-width="2.4"/>
   <circle cx="400" cy="520" r="7.647058823529412" fill="#0A0A0A"/>

</svg>